<svg width="390" height="390" viewBox="0 0 390 390" fill="none" xmlns="http://www.w3.org/2000/svg">
<path d="M188.851 338.379L186.785 360.099L179.192 359.371C177.679 359.226 176.456 358.845 175.523 358.227C174.589 357.617 173.924 356.85 173.526 355.928C173.128 355.012 172.98 354.024 173.081 352.963C173.169 352.03 173.409 351.275 173.799 350.699C174.182 350.122 174.659 349.683 175.23 349.381C175.794 349.078 176.395 348.871 177.033 348.761L177.053 348.549C176.393 348.443 175.747 348.146 175.116 347.657C174.484 347.169 173.98 346.507 173.603 345.671C173.226 344.836 173.092 343.846 173.201 342.7C173.304 341.612 173.645 340.656 174.222 339.834C174.8 339.012 175.647 338.397 176.763 337.99C177.879 337.584 179.292 337.462 181.003 337.626L188.851 338.379ZM185.999 340.46L180.781 339.96C179.063 339.795 177.812 340.01 177.028 340.606C176.236 341.208 175.794 341.986 175.703 342.94C175.633 343.676 175.756 344.372 176.072 345.031C176.387 345.696 176.873 346.249 177.53 346.69C178.186 347.138 178.988 347.408 179.936 347.499L185.281 348.011L185.999 340.46ZM185.063 350.302L180.184 349.834C179.393 349.758 178.664 349.845 177.998 350.095C177.325 350.345 176.774 350.734 176.346 351.264C175.91 351.793 175.656 352.439 175.583 353.203C175.493 354.158 175.748 354.999 176.349 355.727C176.95 356.463 177.971 356.899 179.414 357.038L184.377 357.513L185.063 350.302Z" fill="white"/>
<path d="M141.994 340.04C142.64 337.831 143.597 336.04 144.864 334.666C146.132 333.293 147.588 332.374 149.233 331.911C150.878 331.448 152.593 331.48 154.378 332.006C156.163 332.532 157.623 333.436 158.757 334.719C159.892 336.001 160.622 337.564 160.949 339.407C161.275 341.251 161.115 343.277 160.469 345.486C159.823 347.694 158.867 349.485 157.599 350.859C156.331 352.233 154.875 353.151 153.23 353.614C151.585 354.077 149.87 354.046 148.085 353.519C146.301 352.993 144.841 352.089 143.706 350.807C142.572 349.525 141.841 347.962 141.515 346.118C141.188 344.275 141.348 342.248 141.994 340.04ZM144.446 340.763C143.916 342.576 143.772 344.196 144.013 345.622C144.248 347.046 144.786 348.23 145.627 349.174C146.461 350.116 147.512 350.774 148.779 351.147C150.046 351.521 151.288 351.539 152.504 351.201C153.713 350.862 154.804 350.157 155.775 349.089C156.739 348.018 157.487 346.576 158.017 344.763C158.547 342.95 158.695 341.331 158.461 339.907C158.219 338.481 157.681 337.296 156.847 336.355C156.005 335.411 154.951 334.752 153.684 334.378C152.417 334.005 151.179 333.988 149.97 334.327C148.753 334.665 147.663 335.369 146.699 336.44C145.728 337.509 144.977 338.95 144.446 340.763Z" fill="white"/>
<path d="M115.566 327.256C116.617 325.209 117.895 323.631 119.398 322.522C120.902 321.413 122.505 320.787 124.207 320.644C125.909 320.501 127.586 320.858 129.239 321.713C130.891 322.568 132.154 323.733 133.025 325.208C133.896 326.682 134.318 328.356 134.291 330.229C134.263 332.102 133.723 334.062 132.672 336.109C131.621 338.156 130.343 339.734 128.84 340.843C127.336 341.952 125.733 342.578 124.031 342.721C122.329 342.864 120.652 342.507 118.999 341.652C117.346 340.797 116.084 339.632 115.213 338.157C114.342 336.683 113.92 335.009 113.947 333.136C113.975 331.263 114.515 329.303 115.566 327.256ZM117.837 328.431C116.974 330.112 116.526 331.675 116.493 333.122C116.455 334.566 116.759 335.831 117.407 336.917C118.048 338.001 118.955 338.846 120.128 339.453C121.301 340.061 122.517 340.314 123.774 340.213C125.025 340.109 126.228 339.624 127.384 338.758C128.532 337.889 129.538 336.614 130.401 334.934C131.264 333.253 131.715 331.691 131.754 330.248C131.786 328.801 131.482 327.536 130.841 326.453C130.193 325.366 129.283 324.519 128.11 323.912C126.937 323.304 125.724 323.053 124.473 323.157C123.216 323.258 122.013 323.743 120.864 324.612C119.709 325.478 118.7 326.751 117.837 328.431Z" fill="white"/>
<path d="M112.557 311.98L99.1022 329.156L97.0284 327.519L103.703 318.998L103.503 318.84L89.1349 321.287L86.4257 319.149L99.6873 317.076L99.8807 301.973L102.389 303.953L102.088 316.637L106.121 315.912L110.483 310.343L112.557 311.98Z" fill="white"/>
<path d="M47.9642 269.187L66.8411 258.247L68.1158 260.463L59.222 279.359L59.3282 279.544L74.1495 270.954L75.4667 273.244L56.5898 284.185L55.3151 281.968L64.2246 263.014L64.1184 262.829L49.2602 271.441L47.9642 269.187Z" fill="white"/>
<path d="M46.5856 235.332C48.7592 234.577 50.7732 234.317 52.6273 234.552C54.4814 234.788 56.074 235.441 57.405 236.512C58.736 237.584 59.7047 238.999 60.3112 240.758C60.9178 242.517 61.0278 244.231 60.6413 245.899C60.2548 247.567 59.4053 249.069 58.0929 250.405C56.7804 251.741 55.0374 252.786 52.8637 253.541C50.69 254.296 48.6761 254.556 46.822 254.321C44.9678 254.085 43.3753 253.432 42.0443 252.361C40.7133 251.289 39.7445 249.874 39.138 248.115C38.5315 246.356 38.4215 244.642 38.808 242.974C39.1945 241.306 40.0439 239.804 41.3564 238.468C42.6688 237.132 44.4119 236.087 46.5856 235.332ZM47.4189 237.749C45.6344 238.369 44.2313 239.191 43.2096 240.215C42.1855 241.233 41.533 242.358 41.2519 243.591C40.9685 244.817 41.0421 246.055 41.4727 247.304C41.9033 248.552 42.6087 249.574 43.5889 250.369C44.5667 251.157 45.7726 251.637 47.2063 251.808C48.6378 251.972 50.2458 251.744 52.0303 251.124C53.8149 250.504 55.2192 249.685 56.2432 248.668C57.2649 247.644 57.9174 246.519 58.2008 245.292C58.4819 244.059 58.4071 242.818 57.9766 241.569C57.546 240.321 56.8417 239.302 55.8639 238.514C54.8837 237.719 53.6779 237.24 52.2464 237.075C50.8127 236.904 49.2035 237.129 47.4189 237.749Z" fill="white"/>
<path d="M54.8671 221.855L34.1185 230.878L33.7379 228.22L50.6791 221.168L50.6489 220.957L32.4027 218.898L31.9798 215.945L48.9088 208.808L48.8786 208.598L30.6445 206.622L30.2639 203.965L52.7042 206.754L53.0908 209.453L36.5655 216.704L36.5897 216.873L54.4804 219.156L54.8671 221.855Z" fill="white"/>
<path d="M56.8226 160.103C56.6992 160.614 56.4104 161.008 55.9562 161.285C55.5021 161.561 55.0197 161.638 54.509 161.513C53.9984 161.389 53.6044 161.099 53.3271 160.644C53.0498 160.189 52.9729 159.706 53.0963 159.196C53.2198 158.685 53.5086 158.291 53.9627 158.014C54.4169 157.737 54.8993 157.661 55.4099 157.785C55.7481 157.868 56.0377 158.03 56.2789 158.271C56.5218 158.506 56.6953 158.785 56.7994 159.111C56.8983 159.427 56.906 159.758 56.8226 160.103Z" fill="white"/>
<path d="M74.7816 117.214L57.0321 104.526L61.4453 98.3043C62.3247 97.0647 63.2638 96.195 64.2625 95.6955C65.2555 95.1918 66.2499 94.9991 67.2457 95.1173C68.2358 95.2314 69.1642 95.5982 70.0309 96.2178C70.7936 96.763 71.3268 97.3493 71.6306 97.9768C71.9384 98.5984 72.0807 99.2326 72.0573 99.8794C72.038 100.52 71.9168 101.145 71.6939 101.754L71.8672 101.878C72.2882 101.358 72.8672 100.947 73.6042 100.645C74.3412 100.342 75.1648 100.237 76.0749 100.329C76.985 100.421 77.9081 100.801 78.8441 101.47C79.7339 102.106 80.3903 102.881 80.8133 103.795C81.2363 104.708 81.3456 105.751 81.1411 106.923C80.9366 108.095 80.3372 109.382 79.3428 110.784L74.7816 117.214ZM74.4035 113.696L77.4361 109.421C78.4346 108.013 78.8719 106.82 78.7479 105.841C78.6223 104.852 78.1694 104.078 77.3894 103.521C76.7885 103.091 76.125 102.848 75.3987 102.792C74.6667 102.731 73.9463 102.875 73.2373 103.224C72.5226 103.569 71.89 104.129 71.3393 104.906L68.2328 109.285L74.4035 113.696ZM66.3607 107.947L69.1961 103.95C69.6563 103.301 69.9442 102.625 70.0598 101.922C70.1796 101.213 70.1172 100.54 69.8728 99.9024C69.6324 99.2591 69.2003 98.7145 68.5763 98.2684C67.7962 97.7108 66.9416 97.5102 66.0122 97.6665C65.077 97.8186 64.1903 98.4856 63.352 99.6673L60.4674 103.734L66.3607 107.947Z" fill="white"/>
<path d="M96.6938 75.6402C98.2785 77.3087 99.3479 79.0379 99.902 80.8277C100.456 82.6176 100.523 84.3431 100.102 86.0041C99.6816 87.665 98.7991 89.1389 97.4549 90.4256C96.1106 91.7122 94.6021 92.5269 92.9294 92.8696C91.2566 93.2123 89.543 93.0633 87.7883 92.4226C86.0337 91.7819 84.364 90.6273 82.7792 88.9589C81.1945 87.2904 80.1251 85.5612 79.571 83.7713C79.017 81.9815 78.9503 80.256 79.3709 78.595C79.7915 76.934 80.6739 75.4602 82.0181 74.1735C83.3624 72.8868 84.8709 72.0721 86.5436 71.7294C88.2164 71.3867 89.9301 71.5358 91.6847 72.1765C93.4393 72.8172 95.109 73.9718 96.6938 75.6402ZM94.8467 77.4082C93.5456 76.0384 92.2192 75.1009 90.8675 74.5956C89.5209 74.0854 88.2303 73.959 86.9958 74.2165C85.7664 74.4691 84.6746 75.0521 83.7203 75.9656C82.766 76.879 82.1313 77.9486 81.8164 79.1742C81.5065 80.3949 81.5709 81.695 82.0093 83.0744C82.4529 84.449 83.3252 85.8211 84.6263 87.1909C85.9274 88.5607 87.2512 89.5007 88.5978 90.0109C89.9495 90.5162 91.2401 90.6425 92.4695 90.3899C93.704 90.1324 94.7984 89.547 95.7527 88.6335C96.707 87.7201 97.3391 86.653 97.649 85.4323C97.9639 84.2067 97.8996 82.9066 97.456 81.532C97.0175 80.1526 96.1478 78.778 94.8467 77.4082Z" fill="white"/>
<path d="M120.91 59.015C122.151 60.9531 122.874 62.8531 123.08 64.7152C123.285 66.5774 123.024 68.284 122.297 69.835C121.57 71.3861 120.424 72.666 118.86 73.6748C117.297 74.6836 115.661 75.1979 113.953 75.2177C112.246 75.2375 110.591 74.7668 108.989 73.8057C107.387 72.8445 105.966 71.3949 104.725 69.4569C103.484 67.5189 102.761 65.6188 102.556 63.7567C102.35 61.8946 102.611 60.188 103.339 58.6369C104.066 57.0858 105.211 55.8059 106.775 54.7971C108.339 53.7884 109.974 53.2741 111.682 53.2543C113.39 53.2344 115.044 53.7051 116.646 54.6663C118.248 55.6274 119.67 57.077 120.91 59.015ZM118.762 60.4011C117.743 58.81 116.618 57.6385 115.386 56.8866C114.16 56.1308 112.917 55.7624 111.656 55.7816C110.4 55.7968 109.218 56.1626 108.108 56.8787C106.998 57.5948 106.172 58.5247 105.631 59.6684C105.095 60.8082 104.913 62.0967 105.082 63.534C105.258 64.9675 105.855 66.4797 106.874 68.0708C107.892 69.6619 109.014 70.8353 110.24 71.5911C111.472 72.3431 112.716 72.7114 113.971 72.6961C115.232 72.677 116.418 72.3094 117.528 71.5932C118.638 70.8771 119.461 69.9491 119.996 68.8093C120.537 67.6657 120.72 66.3771 120.544 64.9437C120.375 63.5064 119.781 61.9922 118.762 60.4011Z" fill="white"/>
<path d="M135.563 63.9807L127.481 43.7146L129.932 42.7294L133.942 52.7833L134.179 52.6879L139.264 38.9793L142.467 37.6921L137.612 50.252L150.549 57.9582L147.583 59.1499L136.788 52.5579L135.394 56.4248L138.015 62.9954L135.563 63.9807Z" fill="white"/>
<path d="M204.828 29.1818V51H202.272L190.382 33.8693H190.169V51H187.527V29.1818H190.084L202.016 46.3551H202.229V29.1818H204.828Z" fill="white"/>
<path d="M234.759 44.8712C234.325 47.1311 233.542 49.0051 232.41 50.4933C231.278 51.9816 229.915 53.0345 228.321 53.652C226.727 54.2696 225.017 54.4017 223.19 54.0482C221.363 53.6947 219.824 52.934 218.573 51.766C217.322 50.598 216.447 49.112 215.947 47.3081C215.447 45.5042 215.414 43.4723 215.848 41.2124C216.282 38.9526 217.065 37.0785 218.197 35.5903C219.328 34.1021 220.691 33.0492 222.285 32.4316C223.879 31.814 225.59 31.682 227.416 32.0355C229.243 32.3889 230.782 33.1497 232.033 34.3177C233.284 35.4857 234.16 36.9716 234.66 38.7755C235.16 40.5795 235.192 42.6114 234.759 44.8712ZM232.248 44.3855C232.605 42.5302 232.595 40.9043 232.219 39.5078C231.851 38.1127 231.203 36.9855 230.276 36.1261C229.356 35.2681 228.247 34.7136 226.95 34.4627C225.653 34.2118 224.416 34.3123 223.237 34.7642C222.065 35.2175 221.046 36.0223 220.181 37.1786C219.322 38.3363 218.714 39.8428 218.358 41.6981C218.002 43.5534 218.008 45.1786 218.377 46.5738C218.752 47.9702 219.4 49.0975 220.32 49.9555C221.247 50.8148 222.359 51.37 223.656 51.6209C224.953 51.8719 226.188 51.7707 227.359 51.3174C228.538 50.8655 229.557 50.0607 230.416 48.903C231.281 47.7467 231.892 46.2409 232.248 44.3855Z" fill="white"/>
<path d="M242.221 58.7697L244.768 36.279L247.259 37.2801L244.907 55.4861L245.105 55.5656L255.997 40.7919L258.765 41.9042L256.492 60.142L256.69 60.2215L267.503 45.416L269.994 46.4171L256.376 64.4585L253.846 63.4415L255.818 45.4964L255.66 45.4328L244.752 59.7867L242.221 58.7697Z" fill="white"/>
<path d="M294.544 91.4405C294.164 91.077 293.968 90.6287 293.955 90.0955C293.943 89.5623 294.117 89.1052 294.479 88.7241C294.841 88.343 295.288 88.1462 295.819 88.1335C296.35 88.1209 296.805 88.2963 297.185 88.6597C297.565 89.0231 297.761 89.4714 297.774 90.0046C297.786 90.5378 297.612 90.995 297.25 91.376C297.01 91.6284 296.726 91.7987 296.397 91.8871C296.073 91.9803 295.745 91.9907 295.412 91.9181C295.09 91.8452 294.8 91.686 294.544 91.4405Z" fill="white"/>
<path d="M322.473 128.584L342.306 119.491L345.465 126.435C346.094 127.818 346.374 129.069 346.305 130.186C346.243 131.301 345.911 132.261 345.311 133.068C344.717 133.872 343.935 134.496 342.967 134.939C342.115 135.33 341.342 135.501 340.649 135.452C339.958 135.409 339.34 135.216 338.793 134.872C338.25 134.535 337.771 134.118 337.358 133.62L337.164 133.709C337.402 134.334 337.466 135.043 337.358 135.835C337.251 136.627 336.929 137.395 336.394 138.14C335.859 138.886 335.069 139.498 334.023 139.977C333.029 140.433 332.032 140.617 331.032 140.528C330.032 140.44 329.077 140.014 328.168 139.251C327.259 138.488 326.449 137.324 325.737 135.76L322.473 128.584ZM325.697 130.012L327.868 134.783C328.583 136.354 329.393 137.33 330.3 137.711C331.216 138.096 332.11 138.088 332.982 137.689C333.653 137.381 334.195 136.926 334.608 136.322C335.026 135.716 335.263 135.018 335.317 134.228C335.377 133.434 335.21 132.605 334.816 131.738L332.593 126.851L325.697 130.012ZM334.684 125.892L336.714 130.353C337.043 131.077 337.482 131.665 338.031 132.116C338.583 132.574 339.195 132.856 339.867 132.962C340.542 133.074 341.229 132.971 341.926 132.651C342.797 132.251 343.398 131.609 343.729 130.723C344.066 129.834 343.934 128.73 343.334 127.411L341.27 122.873L334.684 125.892Z" fill="white"/>
<path d="M347.337 168.404C345.102 168.948 343.072 169.015 341.248 168.604C339.424 168.192 337.901 167.39 336.677 166.197C335.454 165.004 334.623 163.503 334.186 161.694C333.749 159.885 333.802 158.169 334.345 156.546C334.888 154.923 335.876 153.509 337.309 152.304C338.743 151.1 340.577 150.226 342.813 149.681C345.049 149.137 347.078 149.07 348.902 149.481C350.726 149.892 352.25 150.694 353.473 151.888C354.697 153.081 355.527 154.582 355.964 156.39C356.401 158.199 356.349 159.915 355.806 161.539C355.263 163.162 354.275 164.576 352.841 165.78C351.408 166.985 349.573 167.859 347.337 168.404ZM346.737 165.918C348.572 165.471 350.047 164.787 351.162 163.865C352.278 162.95 353.034 161.892 353.431 160.692C353.829 159.498 353.873 158.259 353.563 156.975C353.253 155.691 352.647 154.607 351.747 153.722C350.848 152.845 349.693 152.253 348.281 151.946C346.872 151.646 345.249 151.719 343.414 152.166C341.578 152.613 340.102 153.294 338.986 154.209C337.872 155.131 337.116 156.189 336.717 157.383C336.32 158.583 336.277 159.825 336.587 161.109C336.898 162.393 337.502 163.474 338.401 164.352C339.302 165.236 340.457 165.828 341.867 166.128C343.278 166.435 344.901 166.365 346.737 165.918Z" fill="white"/>
<path d="M349.534 197.746C347.236 197.856 345.23 197.536 343.516 196.786C341.802 196.036 340.457 194.959 339.48 193.555C338.504 192.152 337.971 190.52 337.883 188.662C337.795 186.803 338.17 185.128 339.01 183.638C339.849 182.147 341.086 180.947 342.721 180.036C344.356 179.126 346.323 178.616 348.621 178.506C350.92 178.397 352.926 178.717 354.639 179.467C356.353 180.216 357.698 181.293 358.675 182.697C359.652 184.101 360.184 185.732 360.272 187.591C360.36 189.45 359.985 191.124 359.146 192.615C358.306 194.106 357.069 195.306 355.434 196.216C353.799 197.126 351.833 197.636 349.534 197.746ZM349.413 195.192C351.3 195.102 352.878 194.71 354.146 194.017C355.415 193.33 356.357 192.436 356.973 191.332C357.589 190.236 357.866 189.029 357.804 187.709C357.741 186.389 357.351 185.21 356.633 184.171C355.916 183.138 354.893 182.338 353.565 181.768C352.237 181.206 350.629 180.97 348.742 181.06C346.855 181.151 345.278 181.539 344.009 182.225C342.741 182.919 341.798 183.814 341.182 184.91C340.566 186.013 340.289 187.224 340.352 188.544C340.414 189.863 340.804 191.039 341.522 192.071C342.239 193.111 343.262 193.911 344.59 194.474C345.918 195.043 347.526 195.282 349.413 195.192Z" fill="white"/>
<path d="M337.866 208.025L359.461 211.142L359.086 213.757L348.373 212.211L348.337 212.464L357.66 223.712L357.171 227.129L348.727 216.653L335.576 224.012L336.03 220.848L347.143 214.789L344.493 211.651L337.492 210.64L337.866 208.025Z" fill="white"/>
<path d="M333.361 285.575L314.484 274.634L315.759 272.418L336.508 270.702L336.614 270.517L321.793 261.927L323.11 259.637L341.987 270.577L340.712 272.794L319.905 274.526L319.799 274.71L334.657 283.322L333.361 285.575Z" fill="white"/>
<path d="M304.875 303.744C303.138 302.234 301.909 300.614 301.188 298.885C300.466 297.156 300.236 295.445 300.496 293.751C300.757 292.058 301.496 290.507 302.711 289.098C303.927 287.69 305.352 286.735 306.984 286.235C308.617 285.735 310.337 285.72 312.145 286.191C313.952 286.662 315.724 287.653 317.46 289.163C319.197 290.673 320.425 292.293 321.147 294.022C321.869 295.751 322.099 297.462 321.838 299.156C321.578 300.849 320.839 302.4 319.623 303.809C318.408 305.218 316.983 306.172 315.351 306.672C313.718 307.172 311.998 307.187 310.19 306.716C308.383 306.245 306.611 305.254 304.875 303.744ZM306.545 301.808C307.971 303.048 309.38 303.855 310.774 304.23C312.163 304.61 313.46 304.613 314.664 304.239C315.864 303.871 316.895 303.187 317.759 302.187C318.622 301.187 319.152 300.062 319.349 298.812C319.541 297.567 319.354 296.279 318.786 294.948C318.214 293.622 317.215 292.339 315.79 291.099C314.364 289.859 312.957 289.049 311.568 288.669C310.174 288.294 308.878 288.291 307.678 288.66C306.473 289.033 305.439 289.72 304.576 290.72C303.713 291.72 303.185 292.843 302.993 294.087C302.796 295.337 302.983 296.625 303.556 297.951C304.123 299.283 305.12 300.569 306.545 301.808Z" fill="white"/>
<path d="M289.165 303.322L307.303 316.8L305.196 318.464L290.658 307.301L290.491 307.433L297.804 324.299L295.463 326.148L280.858 315.037L280.691 315.169L288.071 331.983L285.964 333.646L277.191 312.774L279.332 311.084L293.833 321.787L293.967 321.682L287.025 305.011L289.165 303.322Z" fill="white"/>
<path d="M234.874 332.581C235.378 332.433 235.864 332.486 236.33 332.741C236.797 332.995 237.104 333.375 237.252 333.88C237.399 334.384 237.345 334.87 237.09 335.338C236.835 335.805 236.455 336.114 235.951 336.262C235.447 336.411 234.961 336.358 234.495 336.103C234.028 335.848 233.721 335.468 233.573 334.964C233.475 334.63 233.471 334.298 233.559 333.968C233.641 333.641 233.797 333.35 234.026 333.098C234.251 332.854 234.534 332.682 234.874 332.581Z" fill="white"/>
</svg>
